<?xml version="1.0" encoding="UTF-8" standalone="no"?>
<svg
   version="1.1"
   width="252.89999"
   height="252.89999"
   viewBox="0 0 252.89999 252.89999"
   xml:space="preserve"
   id="svg1"
   sodipodi:docname="download-arrow-6422.svg"
   xmlns:inkscape="http://www.inkscape.org/namespaces/inkscape"
   xmlns:sodipodi="http://sodipodi.sourceforge.net/DTD/sodipodi-0.dtd"
   xmlns="http://www.w3.org/2000/svg"
   xmlns:svg="http://www.w3.org/2000/svg"><defs
   id="defs1" /><sodipodi:namedview
   id="namedview1"
   pagecolor="#ffffff"
   bordercolor="#000000"
   borderopacity="0.25"
   inkscape:showpageshadow="2"
   inkscape:pageopacity="0.0"
   inkscape:pagecheckerboard="0"
   inkscape:deskcolor="#d1d1d1"><inkscape:page
     x="0"
     y="0"
     width="252.89999"
     height="252.89999"
     id="page2"
     margin="0"
     bleed="0" /></sodipodi:namedview>
<ellipse
   style="fill:#ffffff;stroke:#000000"
   id="path2"
   ry="84.642586"
   rx="76.672478"
   cy="126.91221"
   cx="118.30449" /><g
   style="opacity:1;fill:none;fill-rule:nonzero;stroke:none;stroke-width:0;stroke-linecap:butt;stroke-linejoin:miter;stroke-miterlimit:10;stroke-dasharray:none"
   transform="scale(2.81)"
   id="g1">
	<path
   d="M 45,0 C 20.147,0 0,20.147 0,45 0,69.853 20.147,90 45,90 69.853,90 90,69.853 90,45 90,20.147 69.853,0 45,0 Z M 62.826,52.05 47.63,65.311 c -0.066,0.058 -0.141,0.099 -0.211,0.152 -0.094,0.072 -0.186,0.144 -0.286,0.207 -0.118,0.075 -0.241,0.137 -0.365,0.198 -0.099,0.049 -0.195,0.101 -0.298,0.142 -0.144,0.057 -0.292,0.097 -0.44,0.137 -0.093,0.025 -0.181,0.057 -0.277,0.075 -0.249,0.048 -0.501,0.076 -0.754,0.076 -0.253,0 -0.505,-0.028 -0.754,-0.076 -0.095,-0.018 -0.183,-0.05 -0.276,-0.075 -0.149,-0.04 -0.296,-0.08 -0.441,-0.137 -0.103,-0.041 -0.199,-0.093 -0.298,-0.142 -0.124,-0.061 -0.246,-0.123 -0.364,-0.198 -0.1,-0.064 -0.193,-0.135 -0.287,-0.207 -0.069,-0.053 -0.144,-0.094 -0.21,-0.152 L 27.174,52.05 c -1.665,-1.452 -1.836,-3.979 -0.384,-5.644 1.453,-1.665 3.979,-1.836 5.644,-0.384 L 41,53.498 V 27.704 c 0,-2.209 1.791,-4 4,-4 2.209,0 4,1.791 4,4 v 25.794 l 8.566,-7.475 c 1.664,-1.453 4.19,-1.28 5.644,0.384 1.454,1.664 1.281,4.191 -0.384,5.643 z"
   style="opacity:1;fill:#00b2b9;fill-rule:nonzero;stroke:none;stroke-width:1;stroke-linecap:butt;stroke-linejoin:miter;stroke-miterlimit:10;stroke-dasharray:none"
   stroke-linecap="round"
   id="path1" />
</g>
</svg>
