<?xml version="1.0" encoding="UTF-8" standalone="no"?>
<svg
   version="1.1"
   width="252.89999"
   height="252.89999"
   viewBox="0 0 252.89999 252.89999"
   xml:space="preserve"
   id="svg2"
   sodipodi:docname="pause-black-circle-button-20755.svg"
   xmlns:inkscape="http://www.inkscape.org/namespaces/inkscape"
   xmlns:sodipodi="http://sodipodi.sourceforge.net/DTD/sodipodi-0.dtd"
   xmlns="http://www.w3.org/2000/svg"
   xmlns:svg="http://www.w3.org/2000/svg"><defs
   id="defs2" /><sodipodi:namedview
   id="namedview2"
   pagecolor="#ffffff"
   bordercolor="#000000"
   borderopacity="0.25"
   inkscape:showpageshadow="2"
   inkscape:pageopacity="0.0"
   inkscape:pagecheckerboard="0"
   inkscape:deskcolor="#d1d1d1"><inkscape:page
     x="0"
     y="0"
     width="252.89999"
     height="252.89999"
     id="page2"
     margin="0"
     bleed="0" /></sodipodi:namedview>
<g
   style="opacity:1;fill:none;fill-rule:nonzero;stroke:none;stroke-width:0;stroke-linecap:butt;stroke-linejoin:miter;stroke-miterlimit:10;stroke-dasharray:none"
   transform="scale(2.81)"
   id="g2">
	
	
	<g
   inkscape:groupmode="layer"
   id="layer2"
   inkscape:label="Layer 1"
   transform="matrix(0.35587189,0,0,0.35587189,-0.50056705,-0.50056705)"><rect
     style="fill:#ffffff;stroke:#000000"
     id="rect3"
     width="142.5056"
     height="162.90909"
     x="51.327522"
     y="38.894146" /></g><path
   d="M 45,0 C 20.147,0 0,20.147 0,45 0,69.853 20.147,90 45,90 69.853,90 90,69.853 90,45 90,20.147 69.853,0 45,0 Z m -4.101,65.5 c 0,1.104 -0.896,2 -2,2 H 25.523 c -1.104,0 -2,-0.896 -2,-2 v -41 c 0,-1.104 0.896,-2 2,-2 h 13.376 c 1.104,0 2,0.896 2,2 z m 25.578,0 c 0,1.104 -0.896,2 -2,2 H 51.101 c -1.104,0 -2,-0.896 -2,-2 v -41 c 0,-1.104 0.896,-2 2,-2 h 13.376 c 1.104,0 2,0.896 2,2 z"
   style="opacity:1;fill:#252525;fill-rule:nonzero;stroke:none;stroke-width:1;stroke-linecap:butt;stroke-linejoin:miter;stroke-miterlimit:10;stroke-dasharray:none"
   stroke-linecap="round"
   id="path2" />
</g>
</svg>
