<?xml version="1.0" encoding="UTF-8" standalone="no"?>
<svg
   version="1.1"
   width="252.89999"
   height="252.89999"
   viewBox="0 0 252.89999 252.89999"
   xml:space="preserve"
   id="svg1"
   sodipodi:docname="play-button-12041.svg"
   xmlns:inkscape="http://www.inkscape.org/namespaces/inkscape"
   xmlns:sodipodi="http://sodipodi.sourceforge.net/DTD/sodipodi-0.dtd"
   xmlns="http://www.w3.org/2000/svg"
   xmlns:svg="http://www.w3.org/2000/svg"><defs
   id="defs1" /><sodipodi:namedview
   id="namedview1"
   pagecolor="#ffffff"
   bordercolor="#000000"
   borderopacity="0.25"
   inkscape:showpageshadow="2"
   inkscape:pageopacity="0.0"
   inkscape:pagecheckerboard="0"
   inkscape:deskcolor="#d1d1d1"><inkscape:page
     x="0"
     y="0"
     width="252.89999"
     height="252.89999"
     id="page2"
     margin="0"
     bleed="0" /></sodipodi:namedview>
<rect
   style="fill:#ffffff;stroke:#000000"
   id="rect1"
   width="155.5766"
   height="150.79451"
   x="47.051689"
   y="45.77647" /><g
   style="opacity:1;fill:none;fill-rule:nonzero;stroke:none;stroke-width:0;stroke-linecap:butt;stroke-linejoin:miter;stroke-miterlimit:10;stroke-dasharray:none"
   transform="scale(2.81)"
   id="g1">
	<path
   d="M 45,0 C 20.147,0 0,20.147 0,45 0,69.853 20.147,90 45,90 69.853,90 90,69.853 90,45 90,20.147 69.853,0 45,0 Z M 62.042,46.604 37.288,65.53 c -1.329,1.016 -3.246,0.068 -3.246,-1.604 V 26.074 c 0,-1.673 1.917,-2.62 3.246,-1.604 l 24.754,18.926 c 1.057,0.808 1.057,2.4 0,3.208 z"
   style="opacity:1;fill:#17a700;fill-rule:nonzero;stroke:none;stroke-width:1;stroke-linecap:butt;stroke-linejoin:miter;stroke-miterlimit:10;stroke-dasharray:none"
   stroke-linecap="round"
   id="path1" />
</g>
</svg>
